# xmcd
#
# Track frame offsets:
# 150
# 16575
# 32599
# 45824
# 67094
# 82932
# 98516
# 119822
# 130268
# 144353
# 163350
# 180632
# 206117
#
# Disc length: 2977 seconds
#
#
# Revision: 2
# Processed by: cddbd v1.5.2PL0 Copyright (c) Steve Scherf et al.
# Submitted via: FreeRIP 2.80 
#
DISCID=a90b9f0d
DTITLE=Clifton Chenier - I'm Coming Home
DYEAR=1977
DGENRE=Ethnic
TTITLE0=Got Me Where You Want Me
TTITLE1=Caldonia
TTITLE2=Choo Choo Boogie
TTITLE3=What'D I Say
TTITLE4=Joke Blon (Buddy Dee)
TTITLE5=Kansas City
TTITLE6=Let The Good Times Roll
TTITLE7=I Don'T Know Lafayette
TTITLE8=I Hear You Knockin
TTITLE9=There'S Something Wrong
TTITLE10=I'M Coming Home
TTITLE11=We'Re Gonna Party
TTITLE12=Night Time (Is The Right Time)
EXTD=
EXTT0=
EXTT1=
EXTT2=
EXTT3=
EXTT4=
EXTT5=
EXTT6=
EXTT7=
EXTT8=
EXTT9=
EXTT10=
EXTT11=
EXTT12=
PLAYORDER=
